<svg width="61" height="60" viewBox="0 0 61 60" fill="none" xmlns="http://www.w3.org/2000/svg">
<rect width="60" height="60" transform="translate(0.200195)" fill="white"/>
<path d="M25.2282 19.7576L30.9852 29.2121H41.9759L47.7329 19.7576L41.9759 10.303H30.9852L25.2282 19.7576Z" fill="#F36F21"/>
<path d="M2.2002 29.2121H9.00393M9.00393 29.2121L14.7609 19.7576M9.00393 29.2121L14.7609 38.1414M14.7609 19.7576H25.2282M14.7609 19.7576L9.00393 10.303M25.2282 19.7576L30.9852 29.2121M25.2282 19.7576L30.9852 10.303H41.9759M30.9852 29.2121H41.9759M30.9852 29.2121L25.2282 38.1414M41.9759 29.2121L47.7329 19.7576L41.9759 10.303M41.9759 29.2121L47.7329 38.1414M41.9759 10.303L46.1628 4M25.2282 38.1414H14.7609M25.2282 38.1414L30.9852 48.1212M14.7609 38.1414L9.00393 47.0707M30.9852 48.1212H41.9759M30.9852 48.1212L26.275 56M41.9759 48.1212L47.7329 38.1414M41.9759 48.1212L46.1628 56M47.7329 38.1414H58.2002" stroke="#313031" stroke-linecap="round" stroke-linejoin="round"/>
</svg>
