<svg width="61" height="60" viewBox="0 0 61 60" fill="none" xmlns="http://www.w3.org/2000/svg">
<rect width="60" height="60" transform="translate(0.799805)" fill="white"/>
<path d="M20.7998 36.5V27H12.7998V36.5V42C12.7998 44.2091 14.5907 46 16.7998 46C19.0089 46 20.7998 44.2091 20.7998 42V36.5Z" fill="#F36F21"/>
<path d="M34.7998 36.5V27H26.7998V36.5V42C26.7998 44.2091 28.5907 46 30.7998 46C33.0089 46 34.7998 44.2091 34.7998 42V36.5Z" fill="#F36F21"/>
<path d="M48.7998 36.5V27H40.7998V36.5V42C40.7998 44.2091 42.5907 46 44.7998 46C47.0089 46 48.7998 44.2091 48.7998 42V36.5Z" fill="#F36F21"/>
<path d="M26.7998 21.5H34.7998M26.7998 21.5V27M26.7998 21.5H20.7998M34.7998 21.5V27M34.7998 21.5H40.7998M34.7998 27V36.5V42C34.7998 44.2091 33.0089 46 30.7998 46C28.5907 46 26.7998 44.2091 26.7998 42V36.5V27M34.7998 27H26.7998M26.7998 17.5H34.7998M26.7998 17.5V7M26.7998 17.5H20.7998M34.7998 17.5V7M34.7998 17.5H40.7998M34.7998 7H26.7998M34.7998 7H36.2998V3H25.2998V7H26.7998M40.7998 21.5H48.7998M40.7998 21.5V27M48.7998 21.5V27M48.7998 21.5H52.0498M48.7998 27V36.5V42C48.7998 44.2091 47.0089 46 44.7998 46C42.5907 46 40.7998 44.2091 40.7998 42V36.5V27M48.7998 27H40.7998M40.7998 17.5H48.7998M40.7998 17.5V7M48.7998 17.5V7M48.7998 17.5H57.2998V21.5H55.2998M48.7998 7H40.7998M48.7998 7H50.2998V3H39.2998V7H40.7998M12.7998 21.5H20.7998M12.7998 21.5V27M12.7998 21.5H9.7998M20.7998 21.5V27M20.7998 27V36.5V42C20.7998 44.2091 19.0089 46 16.7998 46C14.5907 46 12.7998 44.2091 12.7998 42V36.5V27M20.7998 27H12.7998M12.7998 17.5H20.7998M12.7998 17.5V7M12.7998 17.5H4.7998V21.5H6.7998M20.7998 17.5V7M20.7998 7H12.7998M20.7998 7H22.2998V3H11.2998V7H12.7998M6.7998 21.5V52.5M6.7998 21.5H9.7998M6.7998 52.5H9.7998M6.7998 52.5H4.7998V57H57.2998V52.5H55.2998M55.2998 52.5V21.5M55.2998 52.5H52.0498M55.2998 21.5H52.0498M52.0498 21.5V52.5M52.0498 52.5H9.7998M9.7998 21.5V52.5" stroke="#313031" stroke-linecap="round" stroke-linejoin="round"/>
</svg>
