<svg width="61" height="60" viewBox="0 0 61 60" fill="none" xmlns="http://www.w3.org/2000/svg">
<rect width="60" height="60" transform="translate(0.600098)" fill="white"/>
<path d="M49.6001 15C46.8387 15 44.6001 12.7614 44.6001 10C44.6001 8.67727 45.1137 7.47451 45.9524 6.58027C46.8646 5.60764 48.1614 5 49.6001 5C52.3615 5 54.6001 7.23858 54.6001 10C54.6001 11.347 54.0675 12.5695 53.2014 13.4686C52.2919 14.4127 51.0146 15 49.6001 15Z" fill="#F36F21"/>
<path d="M11.6001 57C8.83867 57 6.6001 54.7614 6.6001 52C6.6001 50.2115 7.53915 48.6423 8.95112 47.7586C9.71919 47.2779 10.6272 47 11.6001 47C14.3615 47 16.6001 49.2386 16.6001 52C16.6001 52.7137 16.4505 53.3926 16.1811 54.0068C15.408 55.7691 13.6478 57 11.6001 57Z" fill="#F36F21"/>
<path d="M53.2014 13.4686C56.5958 18.1014 58.6001 23.8166 58.6001 30C58.6001 45.464 46.0641 58 30.6001 58C27.1657 58 23.8757 57.3817 20.8353 56.2502M53.2014 13.4686C54.0675 12.5695 54.6001 11.347 54.6001 10C54.6001 7.23858 52.3615 5 49.6001 5C48.1614 5 46.8646 5.60764 45.9524 6.58027C45.1137 7.47451 44.6001 8.67727 44.6001 10C44.6001 12.7614 46.8387 15 49.6001 15C51.0146 15 52.2919 14.4127 53.2014 13.4686ZM8.95112 47.7586C4.98243 42.9261 2.6001 36.7413 2.6001 30C2.6001 14.536 15.1361 2 30.6001 2C34.1233 2 37.4945 2.65071 40.6001 3.83852M8.95112 47.7586C7.53915 48.6423 6.6001 50.2115 6.6001 52C6.6001 54.7614 8.83867 57 11.6001 57C13.6478 57 15.408 55.7691 16.1811 54.0068C16.4505 53.3926 16.6001 52.7137 16.6001 52C16.6001 49.2386 14.3615 47 11.6001 47C10.6272 47 9.71919 47.2779 8.95112 47.7586ZM27.1001 13.3607V10.5H34.1001V13.3607C36.2894 13.8189 38.3238 14.6982 40.1149 15.9101L42.025 14L47.025 19L45.025 21C46.0645 22.6626 46.8246 24.5179 47.2394 26.5H50.1001V33.5H47.2394C46.8246 35.4821 46.0645 37.3374 45.025 39L47.025 41L42.025 46L40.1149 44.0899C38.3238 45.3018 36.2894 46.1811 34.1001 46.6393V49.5H27.1001V46.6393C24.9108 46.1811 22.8764 45.3018 21.0853 44.0899L19.1752 46L14.1752 41L16.1752 39C15.1357 37.3374 14.3756 35.4821 13.9608 33.5H11.1001V26.5H13.9608C14.3756 24.5179 15.1357 22.6626 16.1752 21L14.1752 19L19.1752 14L21.0853 15.9101C22.8764 14.6982 24.9108 13.8189 27.1001 13.3607ZM39.6001 30C39.6001 34.9706 35.5707 39 30.6001 39C25.6295 39 21.6001 34.9706 21.6001 30C21.6001 25.0294 25.6295 21 30.6001 21C35.5707 21 39.6001 25.0294 39.6001 30Z" stroke="black" stroke-linecap="round"/>
</svg>
