<svg width="60" height="60" viewBox="0 0 60 60" fill="none" xmlns="http://www.w3.org/2000/svg">
<rect width="60" height="60" fill="white"/>
<path d="M40 18C40 23.5228 35.5228 28 30 28C24.4772 28 20 23.5228 20 18C20 12.4772 24.4772 8 30 8C35.5228 8 40 12.4772 40 18Z" fill="#F36F21"/>
<path d="M44.5 6H50.5V10.5M36 44H50.5V10.5M36 38.5H46M46 34H44M36 51H56M56 51V55.5H36M56 51V10.5H50.5M30 33C38.2843 33 45 26.2843 45 18C45 9.71573 38.2843 3 30 3C21.7157 3 15 9.71573 15 18C15 26.2843 21.7157 33 30 33ZM30 33V40M30 40C31.933 40 33.5 41.567 33.5 43.5V53.5C33.5 55.433 31.933 57 30 57C28.067 57 26.5 55.433 26.5 53.5V43.5C26.5 41.567 28.067 40 30 40ZM15.5 6H9.5V10.5M24 44H9.5V10.5M24 38.5H14M14 34H16M24 51H4M4 51V55.5H24M4 51V10.5H9.5M40 18C40 23.5228 35.5228 28 30 28C24.4772 28 20 23.5228 20 18C20 12.4772 24.4772 8 30 8C35.5228 8 40 12.4772 40 18Z" stroke="#313031" stroke-linecap="round" stroke-linejoin="round"/>
</svg>
