<svg width="61" height="60" viewBox="0 0 61 60" fill="none" xmlns="http://www.w3.org/2000/svg">
<rect width="60" height="60" transform="translate(0.399902)" fill="white"/>
<path d="M37.3999 31C37.3999 34.866 34.2659 38 30.3999 38C26.5339 38 23.3999 34.866 23.3999 31C23.3999 27.134 26.5339 24 30.3999 24C34.2659 24 37.3999 27.134 37.3999 31Z" fill="#F36F21"/>
<path d="M3.3999 25C3.3999 27.2091 5.19076 29 7.3999 29C7.91197 29 8.40157 28.9038 8.8516 28.7284C10.343 28.1473 11.3999 26.6971 11.3999 25C11.3999 22.7909 9.60904 21 7.3999 21C6.63024 21 5.91134 21.2174 5.30126 21.5941C4.16027 22.2986 3.3999 23.5605 3.3999 25Z" fill="#F36F21"/>
<path d="M54.3999 29C56.609 29 58.3999 27.2091 58.3999 25C58.3999 23.6465 57.7276 22.45 56.6988 21.7262C56.0484 21.2686 55.2555 21 54.3999 21C52.1908 21 50.3999 22.7909 50.3999 25C50.3999 26.7651 51.5432 28.2632 53.1297 28.7941C53.5287 28.9277 53.9559 29 54.3999 29Z" fill="#F36F21"/>
<path d="M37.3999 58C39.609 58 41.3999 56.2091 41.3999 54C41.3999 52.5784 40.6583 51.33 39.5408 50.6206C38.9218 50.2276 38.1874 50 37.3999 50C35.1908 50 33.3999 51.7909 33.3999 54C33.3999 55.2895 34.0101 56.4365 34.9575 57.168C35.6331 57.6897 36.4803 58 37.3999 58Z" fill="#F36F21"/>
<path d="M56.6988 21.7262C56.0484 21.2686 55.2555 21 54.3999 21C52.1908 21 50.3999 22.7909 50.3999 25C50.3999 26.7651 51.5432 28.2632 53.1297 28.7941M56.6988 21.7262C57.7276 22.45 58.3999 23.6465 58.3999 25C58.3999 27.2091 56.609 29 54.3999 29C53.9559 29 53.5287 28.9276 53.1297 28.7941M56.6988 21.7262C57.1767 19.6669 57.0194 17.7994 56.1297 16.2584C52.5398 10.0406 38.3854 11.4919 24.515 19.5001C10.6445 27.5082 2.31037 39.0406 5.90022 45.2584C9.49008 51.4762 23.6445 50.0248 37.515 42.0167C44.2877 38.1064 49.7405 33.3559 53.1297 28.7941M39.5408 50.6206C38.9218 50.2276 38.1874 50 37.3999 50C35.1908 50 33.3999 51.7909 33.3999 54C33.3999 55.2895 34.0101 56.4365 34.9575 57.168M39.5408 50.6206C40.6583 51.33 41.3999 52.5784 41.3999 54C41.3999 56.2091 39.609 58 37.3999 58C36.4803 58 35.6331 57.6896 34.9575 57.168M39.5408 50.6206C41.9237 45.3638 43.4001 38.0665 43.4001 30C43.4001 13.9837 37.5798 1 30.4001 1C23.2204 1 17.4001 13.9837 17.4001 30C17.4001 46.0163 23.2204 59 30.4001 59C32.0036 59 33.5393 58.3524 34.9575 57.168M5.30126 21.5941C4.16027 22.2986 3.3999 23.5605 3.3999 25C3.3999 27.2091 5.19076 29 7.3999 29C7.91197 29 8.40157 28.9038 8.8516 28.7284M5.30126 21.5941C5.91134 21.2174 6.63024 21 7.3999 21C9.60904 21 11.3999 22.7909 11.3999 25C11.3999 26.6971 10.343 28.1473 8.8516 28.7284M5.30126 21.5941C4.86029 19.587 5.02956 17.7664 5.90021 16.2584C9.49006 10.0406 23.6445 11.4919 37.5149 19.5C51.3854 27.5082 59.7195 39.0406 56.1297 45.2584C52.5398 51.4762 38.3854 50.0248 24.5149 42.0167C17.7096 38.0877 12.2371 33.3103 8.8516 28.7284M37.3999 31C37.3999 34.866 34.2659 38 30.3999 38C26.5339 38 23.3999 34.866 23.3999 31C23.3999 27.134 26.5339 24 30.3999 24C34.2659 24 37.3999 27.134 37.3999 31Z" stroke="#313031" stroke-linecap="round" stroke-linejoin="round"/>
</svg>
