<svg width="60" height="60" viewBox="0 0 60 60" fill="none" xmlns="http://www.w3.org/2000/svg">
<path d="M39.2856 23.5C39.8629 22.807 40.2105 21.9132 40.2105 20.9375C40.2105 20.426 40.115 19.9369 39.9408 19.4875C39.3653 18.0022 37.9318 16.95 36.2544 16.95C34.0695 16.95 32.2982 18.7353 32.2982 20.9375C32.2982 22.4374 33.1199 23.7439 34.3342 24.4246C34.9028 24.7434 35.5576 24.925 36.2544 24.925C37.4713 24.925 38.5599 24.3712 39.2856 23.5Z" fill="#F36F21"/>
<path d="M21.5511 26.375L18.2719 32.175L25.1053 36.1625L28.3421 30.3875L21.5511 26.375Z" fill="#F36F21"/>
<path d="M29.0614 43.05H17.5526V47.0375H27.4496L29.0614 43.05Z" fill="#F36F21"/>
<path d="M10 59V52.8375H25.1053M10 59H46.3246M10 59H3H46.3246M46.3246 59V52.8375H41.2895M46.3246 59H57M25.1053 52.8375H41.2895M25.1053 52.8375L27.4496 47.0375M29.0614 43.05H37.3333L38.2125 45.225M29.0614 43.05H17.5526V47.0375H27.4496M29.0614 43.05L27.4496 47.0375M41.2895 52.8375L39.751 49.0312M38.2125 45.225C41.0364 44.2583 46.6842 40.73 46.6842 34.35C46.5643 31.2083 45.3277 24.66 39.2856 23.5M38.2125 45.225L39.751 49.0312M39.2856 23.5C39.8629 22.807 40.2105 21.9132 40.2105 20.9375M39.2856 23.5C38.5599 24.3712 37.4713 24.925 36.2544 24.925M39.751 49.0312C43.5007 47.7625 51 43.05 51 34.35C50.9334 30.2417 48.7802 21.5175 39.9408 19.4875M39.9408 19.4875C40.115 19.9369 40.2105 20.426 40.2105 20.9375M39.9408 19.4875C39.3653 18.0022 37.9318 16.95 36.2544 16.95M38.0526 17.3125L39.751 14.05L38.2125 13.1862M34.3342 24.4246L30.1404 31.45L28.3421 30.3875M34.3342 24.4246C33.1199 23.7439 32.2982 22.4374 32.2982 20.9375M34.3342 24.4246C34.9028 24.7434 35.5576 24.925 36.2544 24.925M21.5511 26.375L19.7105 25.2875L29.4211 8.25L31.5789 9.46161M21.5511 26.375L18.2719 32.175L25.1053 36.1625L28.3421 30.3875M21.5511 26.375L28.3421 30.3875M31.5789 9.46161L34.0965 4.9875M31.5789 9.46161L38.2125 13.1862M34.0965 4.9875L40.5702 8.6125M34.0965 4.9875L32.6579 4.2625L34.4561 1L43.807 6.075L42.0088 9.46161L40.5702 8.6125M40.5702 8.6125L38.2125 13.1862M40.2105 20.9375C40.2105 23.1397 38.4393 24.925 36.2544 24.925M40.2105 20.9375C40.2105 18.7353 38.4393 16.95 36.2544 16.95M36.2544 24.925C34.0695 24.925 32.2982 23.1397 32.2982 20.9375M32.2982 20.9375C32.2982 18.7353 34.0695 16.95 36.2544 16.95" stroke="#313031" stroke-linecap="round" stroke-linejoin="round"/>
</svg>
