<svg width="60" height="60" viewBox="0 0 60 60" fill="none" xmlns="http://www.w3.org/2000/svg">
<rect width="60" height="60" fill="white"/>
<path fill-rule="evenodd" clip-rule="evenodd" d="M48.5195 54.5H10.5195L19.0195 37.5C19.1862 37 20.1195 36.7 22.5195 39.5C23.3529 40.1667 25.6195 40.7 28.0195 37.5C28.3529 37 29.5571 36.4299 30.7571 37.2299C30.6037 37.6236 30.5195 38.052 30.5195 38.5C30.5195 40.433 32.0865 42 34.0195 42C35.9525 42 37.5195 40.433 37.5195 38.5C38.1862 37.5 39.3195 36.1 40.5195 38.5L48.5195 54.5ZM23.0195 51C24.9525 51 26.5195 49.433 26.5195 47.5C26.5195 45.567 24.9525 44 23.0195 44C21.0865 44 19.5195 45.567 19.5195 47.5C19.5195 49.433 21.0865 51 23.0195 51Z" fill="#F36F21"/>
<path d="M22.0002 6.5V23L6.50019 52C4.00019 57 6.50019 58 11.5002 58H18.0002H30.0002M22.0002 6.5H30.0002M22.0002 6.5H19.5195V2H39.5195V6.5H37.5192M37.5192 6.5V23L53.0192 52C55.5192 57 53.0192 58 48.0192 58H41.5192H29.5192M37.5192 6.5H29.5192M37.5195 38.5C38.1862 37.5 39.3195 36.1 40.5195 38.5L48.5195 54.5H10.5195L19.0195 37.5C19.1862 37 20.1195 36.7 22.5195 39.5C23.3529 40.1667 25.6195 40.7 28.0195 37.5C28.3529 37 29.5571 36.4299 30.7571 37.2299C30.6037 37.6236 30.5195 38.052 30.5195 38.5M37.5195 38.5C37.5195 40.433 35.9525 42 34.0195 42C32.0865 42 30.5195 40.433 30.5195 38.5M37.5195 38.5C37.5195 36.567 35.9525 35 34.0195 35C32.0865 35 30.5195 36.567 30.5195 38.5M26.5195 47.5C26.5195 49.433 24.9525 51 23.0195 51C21.0865 51 19.5195 49.433 19.5195 47.5C19.5195 45.567 21.0865 44 23.0195 44C24.9525 44 26.5195 45.567 26.5195 47.5ZM31.5195 24.5C31.5195 26.433 29.9525 28 28.0195 28C26.0865 28 24.5195 26.433 24.5195 24.5C24.5195 22.567 26.0865 21 28.0195 21C29.9525 21 31.5195 22.567 31.5195 24.5Z" stroke="#313031" stroke-linecap="round" stroke-linejoin="round"/>
</svg>
