<svg width="60" height="60" viewBox="0 0 60 60" fill="none" xmlns="http://www.w3.org/2000/svg">
<rect width="60" height="60" fill="white"/>
<path d="M48.5 9.5V37.5C52.8333 35.6667 60.3 26 55.5 2L48.5 5.5V9.5Z" fill="#F36F21"/>
<path d="M43 59V54H39H22H18V59H43Z" fill="#F36F21"/>
<path d="M9 2.35938V9.5H11.5H14V3.25781L9 2.35938Z" fill="#F36F21"/>
<path d="M1 59H5M59 59H43M43 59V54H39M43 59H18M18 59V54H22M18 59H13M22 54V49M22 54H39M22 49L23.6957 39.25M22 49H27.0435M39 49V54M39 49L38.1232 43.5M39 49H27.0435M33.5 14.5H28M33.5 14.5L27.0435 20M33.5 14.5L35.0942 24.5M33.5 14.5H36.6087V7.5M28 14.5L27.0435 20M28 14.5H23.6957V5M27.0435 20L35.0942 24.5M27.0435 20L25.3913 29.5M35.0942 24.5L25.3913 29.5M35.0942 24.5L36.6087 34M25.3913 29.5L36.6087 34M25.3913 29.5L23.6957 39.25M36.6087 34L23.6957 39.25M36.6087 34L38.1232 43.5M23.6957 39.25L38.1232 43.5M38.1232 43.5L27.0435 49M23.6957 5L36.6087 7.5M23.6957 5L14 3.25781M36.6087 7.5L48.5 9.5M48.5 9.5V37.5C52.8333 35.6667 60.3 26 55.5 2L48.5 5.5V9.5ZM7 2L9 2.35938M9 2.35938V9.5H11.5M9 2.35938L14 3.25781M14 3.25781V9.5H11.5M11.5 9.5V43.5M11.5 43.5L18 37M11.5 43.5L9.5 45.5M5 50L7.5 47.5M7.5 47.5L5 59M7.5 47.5L9.5 45.5M5 59H13M9.5 45.5L13 59" stroke="#313031" stroke-linecap="round" stroke-linejoin="round"/>
</svg>
