<svg width="106" height="50" viewBox="0 0 106 50" fill="none" xmlns="http://www.w3.org/2000/svg">
<path d="M25.7533 10.6186C23.7491 9.69923 21.5214 9.18301 19.1722 9.18301C18.1602 9.18301 17.1722 9.2822 16.213 9.46352V-5.53131e-05H0V19.8401C0 21.2991 1.18207 22.4819 2.64033 22.4819H3.56007H10.275C11.1041 19.5462 13.3403 17.2078 16.213 16.2372C17.1435 15.9231 18.1362 15.745 19.1722 15.745C19.2837 15.745 19.3914 15.7578 19.5017 15.7621C21.097 13.5495 23.2484 11.7668 25.7533 10.6186Z" fill="black"/>
<path d="M25.7534 39.3819C27.7577 40.3007 29.9853 40.8169 32.3345 40.8169C33.3465 40.8169 34.3345 40.7183 35.2937 40.5364V50H51.5067V30.1599C51.5067 28.7014 50.3241 27.5185 48.8659 27.5185H47.9467H41.2317C40.4026 30.4537 38.1665 32.7927 35.2937 33.7627C34.3633 34.0773 33.3705 34.2549 32.3345 34.2549C32.2231 34.2549 32.1154 34.2421 32.005 34.2379C30.4097 36.451 28.2578 38.2332 25.7534 39.3819Z" fill="#F36F21"/>
<path d="M32.0049 15.7619C29.5613 15.8483 27.3582 16.8727 25.7533 18.4976C27.4046 20.1694 28.4256 22.4647 28.4256 24.9999C28.4256 27.5351 27.4046 29.8308 25.7533 31.5027C24.1479 33.127 21.9448 34.152 19.5017 34.2379C19.3914 34.2421 19.2837 34.2549 19.1722 34.2549C18.1362 34.2549 17.1429 34.0773 16.213 33.7627C13.3403 32.7927 11.1041 30.4537 10.275 27.5185H3.56007H2.64032C1.18207 27.5185 0 28.7014 0 30.1599V50H16.213V40.5364C17.1722 40.7183 18.1602 40.8169 19.1722 40.8169C21.5214 40.8169 23.7491 40.3007 25.7533 39.3819C28.2577 38.2332 30.4096 36.451 32.0049 34.2379C33.879 31.6387 34.9864 28.4496 34.9864 24.9999C34.9864 21.5506 33.879 18.3616 32.0049 15.7619Z" fill="black"/>
<path d="M35.2934 0.000148773V9.46372C34.3347 9.28188 33.3462 9.18322 32.3342 9.18322C29.985 9.18322 27.7579 9.69943 25.7531 10.6188C23.2488 11.767 21.0968 13.5492 19.5015 15.7618C17.6274 18.3615 16.5205 21.5505 16.5205 24.9998C16.5205 28.4495 17.6274 31.6391 19.5015 34.2383C21.9451 34.1524 24.1482 33.1275 25.7531 31.5026C24.1024 29.8307 23.0813 27.535 23.0813 24.9998C23.0813 22.4645 24.1024 20.1693 25.7531 18.498C27.3585 16.8731 29.5616 15.8481 32.0052 15.7618C32.1151 15.758 32.2233 15.7452 32.3342 15.7452C33.3707 15.7452 34.3635 15.9228 35.2934 16.2374C38.1662 17.208 40.4023 19.5464 41.2314 22.4816H47.9463H48.8661C50.3243 22.4816 51.5069 21.2988 51.5069 19.8403V0.000148773H35.2934Z" fill="#F36F21"/>
<path d="M60.7156 31.5645C59.7948 31.5645 58.9635 31.4146 58.2198 31.1122C57.4765 30.8104 56.8425 30.3779 56.3184 29.8142C55.7948 29.2506 55.3912 28.5648 55.1076 27.7574C54.8244 26.95 54.6826 26.0402 54.6826 25.028C54.6826 24.3753 54.7525 23.7599 54.8927 23.1808C55.0329 22.6016 55.2323 22.0673 55.4915 21.5767C55.7501 21.0855 56.0614 20.6472 56.4235 20.2595C56.786 19.8728 57.1918 19.5433 57.6391 19.2724C58.087 19.0015 58.5717 18.794 59.0926 18.6511C59.614 18.5076 60.1605 18.4357 60.7337 18.4357C61.0323 18.4357 61.3709 18.457 61.7484 18.5002C62.1264 18.5434 62.505 18.5978 62.8862 18.6644C63.2663 18.7322 63.6294 18.8079 63.9733 18.8927C64.3183 18.9785 64.6062 19.0639 64.8376 19.1492V22.2299H64.225L63.5484 20.6301C63.5004 20.5272 63.445 20.4472 63.3847 20.3928C63.3239 20.3373 63.2535 20.2861 63.1741 20.2376C62.7955 20.0238 62.4063 19.8579 62.0038 19.739C61.6023 19.6195 61.1784 19.5603 60.7337 19.5603C60.2464 19.5603 59.8022 19.6734 59.4034 19.899C59.0046 20.1245 58.6634 20.4568 58.3802 20.8951C58.0966 21.3335 57.8775 21.8753 57.7223 22.5184C57.5666 23.161 57.4888 23.9002 57.4888 24.7353C57.4888 25.6008 57.5751 26.3692 57.7495 27.0396C57.9228 27.7099 58.1835 28.2752 58.5306 28.7349C58.8782 29.1956 59.3091 29.5444 59.8241 29.7817C60.3386 30.0195 60.9347 30.139 61.6113 30.139C62.056 30.139 62.4479 30.0883 62.7859 29.9881C63.124 29.8873 63.4252 29.762 63.6908 29.6127C63.9552 29.4633 64.1898 29.2991 64.394 29.1194C64.5988 28.9397 64.7886 28.7706 64.9661 28.6122H65.3586V29.6084C65.1149 29.8212 64.8222 30.0425 64.4809 30.2707C64.1402 30.4995 63.7649 30.7096 63.3565 30.9021C62.948 31.0941 62.5204 31.2525 62.0725 31.3773C61.6247 31.5026 61.1725 31.5645 60.7156 31.5645Z" fill="black"/>
<path d="M65.7788 30.7422L66.939 30.4036C67.0611 30.3679 67.1635 30.3017 67.2451 30.2074C67.3272 30.1124 67.3688 29.9988 67.3688 29.8645V20.1369C67.3688 19.9967 67.3272 19.8793 67.2451 19.7849C67.1635 19.6906 67.0611 19.6244 66.939 19.5882L65.7788 19.2591V18.7013H71.5553V19.2591L70.4036 19.5882C70.2821 19.6244 70.1781 19.6916 70.0933 19.7897C70.0075 19.8868 69.9648 20.0025 69.9648 20.1369V24.232H75.1388V20.1369C75.1388 19.9967 75.0973 19.8793 75.0146 19.7849C74.933 19.6906 74.8312 19.6244 74.7086 19.5882L73.5484 19.2591V18.7013H79.3249V19.2591L78.1641 19.5882C78.042 19.6191 77.9407 19.6842 77.8575 19.7849C77.7754 19.8852 77.7344 20.0025 77.7344 20.1369V29.8645C77.7344 30.0047 77.7754 30.1199 77.8575 30.2116C77.9407 30.3033 78.042 30.3679 78.1641 30.4036L79.3249 30.7422V31.3H73.5484V30.7422L74.7086 30.4036C74.8312 30.3679 74.933 30.3017 75.0146 30.2074C75.0973 30.1124 75.1388 29.9988 75.1388 29.8645V25.2569H69.9648V29.8645C69.9648 30.0047 70.0075 30.1199 70.0933 30.2116C70.1781 30.3033 70.2821 30.3679 70.4036 30.4036L71.5553 30.7422V31.3H65.7788V30.7422Z" fill="black"/>
<path d="M80.0107 30.7422L81.1715 30.4036C81.293 30.3679 81.3954 30.3017 81.477 30.2074C81.5596 30.1124 81.6007 29.9988 81.6007 29.8645V20.1369C81.6007 19.9967 81.5596 19.8793 81.477 19.7849C81.3954 19.6906 81.293 19.6244 81.1715 19.5882L80.0107 19.2591V18.7013H93.3009V19.2591L92.1401 19.5882C92.0186 19.6244 91.9157 19.6916 91.8346 19.7897C91.752 19.8868 91.7104 20.0025 91.7104 20.1369V29.8645C91.7104 30.0047 91.752 30.1199 91.8346 30.2116C91.9157 30.3033 92.0186 30.3679 92.1401 30.4036L93.3009 30.7422V31.3H87.5238V30.7422L88.6856 30.4036C88.8061 30.3679 88.9085 30.3017 88.9912 30.2074C89.0738 30.1124 89.1149 29.9988 89.1149 29.8645V19.7071H84.1968V29.8645C84.1968 30.0047 84.2394 30.1199 84.3253 30.2116C84.41 30.3033 84.514 30.3679 84.6356 30.4036L85.7878 30.7422V31.3H80.0107V30.7422Z" fill="black"/>
<path d="M93.4844 30.7422L94.3247 30.3487C94.483 30.2762 94.627 30.1812 94.7544 30.0655C94.8824 29.9503 94.9896 29.8341 95.0743 29.7183L98.4664 25.3385L95.0743 20.1182C95.0071 20.0148 94.9165 19.9065 94.8008 19.7935C94.6846 19.6804 94.5747 19.6063 94.4718 19.57L93.5937 19.2591V18.7013H99.279V19.2591L97.7163 19.6522L99.6266 22.6417L100.267 23.7024L103.109 19.7796L101.665 19.2591V18.7013H105.677V19.2591L104.864 19.6431C104.724 19.7103 104.585 19.8047 104.448 19.9268C104.312 20.0484 104.2 20.1673 104.114 20.283L100.851 24.5429L104.325 29.8826C104.392 29.9866 104.481 30.0911 104.59 30.1983C104.7 30.3049 104.81 30.3796 104.919 30.4217L105.797 30.7422V31.3H100.111V30.7422L101.684 30.3487L99.6912 27.2311L99.0599 26.171L96.098 30.2207L97.4966 30.7422V31.3H93.4844V30.7422Z" fill="black"/>
</svg>
