<svg width="100" height="100" viewBox="0 0 100 100" fill="none" xmlns="http://www.w3.org/2000/svg">
<path d="M39.3678 68.9655L68.9655 50L39.3678 31.0345V68.9655ZM50.025 100C43.1118 100 36.6112 98.6882 30.5233 96.0645C24.4352 93.4408 19.1395 89.88 14.6361 85.3823C10.1327 80.8845 6.56753 75.5955 3.94052 69.5152C1.3135 63.435 0 56.9382 0 50.025C0 43.1118 1.31183 36.6112 3.93549 30.5233C6.55924 24.4353 10.12 19.1396 14.6177 14.6362C19.1155 10.1328 24.4045 6.56753 30.4848 3.94052C36.565 1.31351 43.0618 0 49.975 0C56.8882 0 63.3888 1.31183 69.4767 3.93549C75.5648 6.55924 80.8604 10.12 85.3638 14.6177C89.8672 19.1155 93.4325 24.4045 96.0595 30.4848C98.6865 36.565 100 43.0618 100 49.975C100 56.8882 98.6882 63.3888 96.0645 69.4767C93.4408 75.5648 89.88 80.8605 85.3823 85.3639C80.8845 89.8673 75.5955 93.4325 69.5152 96.0595C63.435 98.6865 56.9382 100 50.025 100ZM50 95.977C62.8352 95.977 73.7069 91.523 82.6149 82.6149C91.523 73.7069 95.977 62.8352 95.977 50C95.977 37.1647 91.523 26.2931 82.6149 17.3851C73.7069 8.47701 62.8352 4.02299 50 4.02299C37.1647 4.02299 26.2931 8.47701 17.3851 17.3851C8.47701 26.2931 4.02299 37.1647 4.02299 50C4.02299 62.8352 8.47701 73.7069 17.3851 82.6149C26.2931 91.523 37.1647 95.977 50 95.977Z" fill="white"/>
</svg>
