<svg width="100" height="100" viewBox="0 0 100 100" fill="none" xmlns="http://www.w3.org/2000/svg">
<path fill-rule="evenodd" clip-rule="evenodd" d="M89 21C89 11.0589 71.763 3 50.5 3C29.237 3 12 11.0589 12 21C12 23.4828 13.0752 25.8482 15.0197 28C20.8611 34.4639 34.5475 39 50.5 39C66.4525 39 80.1389 34.4639 85.9803 28C87.9248 25.8482 89 23.4828 89 21ZM34.5 23C38.0899 23 41 21.8807 41 20.5C41 19.1193 38.0899 18 34.5 18C30.9101 18 28 19.1193 28 20.5C28 21.8807 30.9101 23 34.5 23Z" fill="white"/>
<path d="M41 20.5C41 21.8807 38.0899 23 34.5 23C30.9101 23 28 21.8807 28 20.5C28 19.1193 30.9101 18 34.5 18C38.0899 18 41 19.1193 41 20.5Z" fill="white"/>
<path d="M50.5 97C71.763 97 89 88.9411 89 79C89 76.5172 87.9248 74.1518 85.9803 72V58C87.9248 55.8482 89 53.4828 89 51C89 48.5172 87.9248 46.1518 85.9803 44V28C80.1389 34.4639 66.4525 39 50.5 39C34.5475 39 20.8611 34.4639 15.0197 28V44C13.0752 46.1518 12 48.5172 12 51C12 53.4828 13.0752 55.8482 15.0197 58V72C13.0752 74.1518 12 76.5172 12 79C12 88.9411 29.237 97 50.5 97Z" fill="white"/>
<path d="M85.9803 58C87.9248 55.8482 89 53.4828 89 51C89 48.5172 87.9248 46.1518 85.9803 44V28M85.9803 58V72C87.9248 74.1518 89 76.5172 89 79C89 88.9411 71.763 97 50.5 97C29.237 97 12 88.9411 12 79C12 76.5172 13.0752 74.1518 15.0197 72V58M85.9803 58C82.5941 61.747 76.5718 64.8462 69 66.7896M85.9803 28C87.9248 25.8482 89 23.4828 89 21C89 11.0589 71.763 3 50.5 3C29.237 3 12 11.0589 12 21C12 23.4828 13.0752 25.8482 15.0197 28M85.9803 28C80.1389 34.4639 66.4525 39 50.5 39C34.5475 39 20.8611 34.4639 15.0197 28M15.0197 58C13.0752 55.8482 12 53.4828 12 51C12 48.5172 13.0752 46.1518 15.0197 44V28M15.0197 58C18.4059 61.747 24.4282 64.8462 32 66.7896M41 20.5C41 21.8807 38.0899 23 34.5 23C30.9101 23 28 21.8807 28 20.5C28 19.1193 30.9101 18 34.5 18C38.0899 18 41 19.1193 41 20.5Z" stroke="#313031" stroke-linecap="round" stroke-linejoin="round"/>
<path d="M61 68.7894C61 74.9809 56.0752 80 50 80C43.9248 80 39 74.9809 39 68.7894C39 62.5979 50 48 50 48C50 48 61 62.5979 61 68.7894Z" fill="#F36F21" stroke="#313031" stroke-miterlimit="10"/>
</svg>
