<svg width="100" height="100" viewBox="0 0 100 100" fill="none" xmlns="http://www.w3.org/2000/svg">
<path d="M66 46.5V63.5C66 67.0899 68.9101 70 72.5 70C76.0899 70 79 67.0899 79 63.5V46.5H66Z" fill="#F36F21"/>
<path d="M30 94.5C43.2548 94.5 54 83.7548 54 70.5C54 65.2753 52.3305 60.4405 49.4958 56.5H10.5042C7.66952 60.4405 6 65.2753 6 70.5C6 83.7548 16.7452 94.5 30 94.5Z" fill="#F36F21"/>
<path d="M37 31H30H25H23.5L23.5294 47.3824C18.2149 48.8668 13.6445 52.1346 10.5042 56.5H49.4958C46.4602 52.2802 42.0885 49.0861 37 47.5369V31Z" fill="white"/>
<path d="M95 94.5V19H88.5V39.5V94.5H95Z" fill="white"/>
<path d="M79 39.5V35H72H66V39.5V46.5H79V39.5Z" fill="white"/>
<path d="M57 94.5H88.5M88.5 94.5H95V19H88.5V39.5M88.5 94.5V39.5M88.5 39.5H79M79 39.5V35H72M79 39.5V46.5M72 39.5V35M30 51V31M30 31V6H39V20.5H47V6H56.5V20.5H63V17.5V9V6H72V9V35M30 31H37V47.5369C42.0885 49.0861 46.4602 52.2802 49.4958 56.5M30 31H25H23.5L23.5294 47.3824C18.2149 48.8668 13.6445 52.1346 10.5042 56.5M36.4706 47.3824C41.7851 48.8668 46.3555 52.1346 49.4958 56.5M23.9053 47.2807C18.4305 48.7138 13.7183 52.032 10.5042 56.5M49.4958 56.5C52.3305 60.4405 54 65.2753 54 70.5C54 83.7548 43.2548 94.5 30 94.5C16.7452 94.5 6 83.7548 6 70.5C6 65.2753 7.66952 60.4405 10.5042 56.5M49.4958 56.5H10.5042M66 46.5V63.5C66 67.0899 68.9101 70 72.5 70C76.0899 70 79 67.0899 79 63.5V46.5M66 46.5H79M66 46.5V39.5M66 39.5V35H72M66 39.5H58" stroke="#313031" stroke-linecap="round" stroke-linejoin="round"/>
</svg>
