<svg width="93" height="84" viewBox="0 0 93 84" fill="none" xmlns="http://www.w3.org/2000/svg">
<path fill-rule="evenodd" clip-rule="evenodd" d="M45.5456 20.1667C44.4405 20.1667 43.3807 20.6057 42.5993 21.3871C41.8179 22.1685 41.3789 23.2283 41.3789 24.3334V24.7084C41.3781 25.4391 41.1853 26.1567 40.8196 26.7893C40.4539 27.4219 39.9283 27.9472 39.2956 28.3126L38.3997 28.8334C37.7663 29.1991 37.0478 29.3916 36.3164 29.3916C35.585 29.3916 34.8665 29.1991 34.2331 28.8334L33.9206 28.6667C32.9644 28.1152 31.8285 27.9656 30.7622 28.2507C29.6959 28.5359 28.7863 29.2324 28.2331 30.1876L27.7747 30.9792C27.2232 31.9354 27.0736 33.0713 27.3587 34.1376C27.6438 35.2039 28.3404 36.1135 29.2956 36.6667L29.6081 36.8751C30.2378 37.2386 30.7614 37.7607 31.1269 38.3893C31.4924 39.0179 31.687 39.7313 31.6914 40.4584V41.5209C31.6943 42.2551 31.5032 42.9771 31.1373 43.6136C30.7715 44.2502 30.2439 44.7788 29.6081 45.1459L29.2956 45.3334C28.3404 45.8866 27.6438 46.7963 27.3587 47.8626C27.0736 48.9289 27.2232 50.0648 27.7747 51.0209L28.2331 51.8126C28.7863 52.7677 29.6959 53.4643 30.7622 53.7494C31.8285 54.0346 32.9644 53.8849 33.9206 53.3334L34.2331 53.1667C34.8665 52.801 35.585 52.6085 36.3164 52.6085C37.0478 52.6085 37.7663 52.801 38.3997 53.1667L39.2956 53.6876C39.9283 54.0529 40.4539 54.5782 40.8196 55.2108C41.1853 55.8434 41.3781 56.5611 41.3789 57.2917V57.6667C41.3789 58.7718 41.8179 59.8316 42.5993 60.613C43.3807 61.3944 44.4405 61.8334 45.5456 61.8334H46.4622C47.5673 61.8334 48.6271 61.3944 49.4085 60.613C50.1899 59.8316 50.6289 58.7718 50.6289 57.6667V57.2917C50.6296 56.5611 50.8225 55.8434 51.1882 55.2108C51.5538 54.5782 52.0794 54.0529 52.7122 53.6876L53.608 53.1667C54.2415 52.801 54.96 52.6085 55.6914 52.6085C56.4228 52.6085 57.1413 52.801 57.7747 53.1667L58.0872 53.3334C59.0433 53.8849 60.1792 54.0346 61.2455 53.7494C62.3119 53.4643 63.2215 52.7677 63.7747 51.8126L64.2331 51.0001C64.7846 50.044 64.9342 48.9081 64.6491 47.8418C64.3639 46.7754 63.6674 45.8658 62.7122 45.3126L62.3997 45.1459C61.7639 44.7788 61.2363 44.2502 60.8705 43.6136C60.5046 42.9771 60.3135 42.2551 60.3164 41.5209V40.4792C60.3135 39.745 60.5046 39.0231 60.8705 38.3865C61.2363 37.7499 61.7639 37.2213 62.3997 36.8542L62.7122 36.6667C63.6674 36.1135 64.3639 35.2039 64.6491 34.1376C64.9342 33.0713 64.7846 31.9354 64.2331 30.9792L63.7747 30.1876C63.2215 29.2324 62.3119 28.5359 61.2455 28.2507C60.1792 27.9656 59.0433 28.1152 58.0872 28.6667L57.7747 28.8334C57.1413 29.1991 56.4228 29.3916 55.6914 29.3916C54.96 29.3916 54.2415 29.1991 53.608 28.8334L52.7122 28.3126C52.0794 27.9472 51.5538 27.4219 51.1882 26.7893C50.8225 26.1567 50.6296 25.4391 50.6289 24.7084V24.3334C50.6289 23.2283 50.1899 22.1685 49.4085 21.3871C48.6271 20.6057 47.5673 20.1667 46.4622 20.1667H45.5456ZM46.0039 47.25C49.4557 47.25 52.2539 44.4518 52.2539 41C52.2539 37.5482 49.4557 34.75 46.0039 34.75C42.5521 34.75 39.7539 37.5482 39.7539 41C39.7539 44.4518 42.5521 47.25 46.0039 47.25Z" fill="#F36F21" stroke="#313031" stroke-linecap="round" stroke-linejoin="round"/>
</svg>
