<svg width="100" height="100" viewBox="0 0 100 100" fill="none" xmlns="http://www.w3.org/2000/svg">
<path d="M77 50C77 64.9117 64.9117 77 50 77C35.0883 77 23 64.9117 23 50C23 35.0883 35.0883 23 50 23C64.9117 23 77 35.0883 77 50Z" stroke="#313031" stroke-linecap="round" stroke-linejoin="round"/>
<path d="M50.4583 29.1667H49.5417C48.4366 29.1667 47.3768 29.6057 46.5954 30.3871C45.814 31.1685 45.375 32.2283 45.375 33.3334V33.7084C45.3743 34.4391 45.1814 35.1567 44.8157 35.7893C44.45 36.4219 43.9245 36.9472 43.2917 37.3126L42.3958 37.8334C41.7624 38.1991 41.0439 38.3916 40.3125 38.3916C39.5811 38.3916 38.8626 38.1991 38.2292 37.8334L37.9167 37.6667C36.9606 37.1152 35.8247 36.9656 34.7583 37.2507C33.692 37.5359 32.7824 38.2324 32.2292 39.1876L31.7708 39.9792C31.2193 40.9354 31.0697 42.0713 31.3548 43.1376C31.6399 44.2039 32.3365 45.1135 33.2917 45.6667L33.6042 45.8751C34.2339 46.2386 34.7575 46.7607 35.123 47.3893C35.4885 48.0179 35.6831 48.7313 35.6875 49.4584V50.5209C35.6904 51.2551 35.4993 51.9771 35.1334 52.6136C34.7676 53.2502 34.24 53.7788 33.6042 54.1459L33.2917 54.3334C32.3365 54.8866 31.6399 55.7963 31.3548 56.8626C31.0697 57.9289 31.2193 59.0648 31.7708 60.0209L32.2292 60.8126C32.7824 61.7677 33.692 62.4643 34.7583 62.7494C35.8247 63.0346 36.9606 62.885 37.9167 62.3334L38.2292 62.1668C38.8626 61.801 39.5811 61.6085 40.3125 61.6085C41.0439 61.6085 41.7624 61.801 42.3958 62.1668L43.2917 62.6876C43.9245 63.0529 44.45 63.5782 44.8157 64.2108C45.1814 64.8434 45.3743 65.5611 45.375 66.2918V66.6668C45.375 67.7718 45.814 68.8316 46.5954 69.613C47.3768 70.3944 48.4366 70.8334 49.5417 70.8334H50.4583C51.5634 70.8334 52.6232 70.3944 53.4046 69.613C54.186 68.8316 54.625 67.7718 54.625 66.6668V66.2918C54.6258 65.5611 54.8186 64.8434 55.1843 64.2108C55.55 63.5782 56.0756 63.0529 56.7083 62.6876L57.6042 62.1668C58.2376 61.801 58.9561 61.6085 59.6875 61.6085C60.4189 61.6085 61.1374 61.801 61.7708 62.1668L62.0833 62.3334C63.0394 62.885 64.1753 63.0346 65.2417 62.7494C66.308 62.4643 67.2176 61.7677 67.7708 60.8126L68.2292 60.0001C68.7807 59.044 68.9303 57.9081 68.6452 56.8418C68.3601 55.7754 67.6635 54.8658 66.7083 54.3126L66.3958 54.1459C65.76 53.7788 65.2324 53.2502 64.8666 52.6136C64.5007 51.9771 64.3096 51.2551 64.3125 50.5209V49.4792C64.3096 48.745 64.5007 48.0231 64.8666 47.3865C65.2324 46.75 65.76 46.2214 66.3958 45.8542L66.7083 45.6667C67.6635 45.1135 68.3601 44.2039 68.6452 43.1376C68.9303 42.0713 68.7807 40.9354 68.2292 39.9792L67.7708 39.1876C67.2176 38.2324 66.308 37.5359 65.2417 37.2507C64.1753 36.9656 63.0394 37.1152 62.0833 37.6667L61.7708 37.8334C61.1374 38.1991 60.4189 38.3916 59.6875 38.3916C58.9561 38.3916 58.2376 38.1991 57.6042 37.8334L56.7083 37.3126C56.0756 36.9472 55.55 36.4219 55.1843 35.7893C54.8186 35.1567 54.6258 34.4391 54.625 33.7084V33.3334C54.625 32.2283 54.186 31.1685 53.4046 30.3871C52.6232 29.6057 51.5634 29.1667 50.4583 29.1667Z" fill="#F36F21" stroke="#313031" stroke-linecap="round" stroke-linejoin="round"/>
<path d="M50 56.25C53.4518 56.25 56.25 53.4518 56.25 50C56.25 46.5482 53.4518 43.75 50 43.75C46.5482 43.75 43.75 46.5482 43.75 50C43.75 53.4518 46.5482 56.25 50 56.25Z" fill="#F0F0F0" stroke="#313031" stroke-linecap="round" stroke-linejoin="round"/>
</svg>
